Coordinates
version=1
nRows=14
nColumns=40
inDegrees=yes

Units are S.I. units (second, meters, Newtons, ...)
Angles are in degrees.

endheader
time	pelvis_tilt	pelvis_list	pelvis_rotation	pelvis_tx	pelvis_ty	pelvis_tz	hip_flexion_r	hip_adduction_r	hip_rotation_r	knee_angle_r	knee_angle_r_beta	ankle_angle_r	subtalar_angle_r	mtp_angle_r	hip_flexion_l	hip_adduction_l	hip_rotation_l	knee_angle_l	knee_angle_l_beta	ankle_angle_l	subtalar_angle_l	mtp_angle_l	lumbar_extension	lumbar_bending	lumbar_rotation	arm_flex_r	arm_add_r	arm_rot_r	elbow_flex_r	pro_sup_r	wrist_flex_r	wrist_dev_r	arm_flex_l	arm_add_l	arm_rot_l	elbow_flex_l	pro_sup_l	wrist_flex_l	wrist_dev_l
     40.25750000	     -6.18315889	     -6.39007382	     -2.10414169	      1.06467528	      0.91959130	      0.46729378	     22.98506124	      2.89024448	    -13.87306680	     20.58071128	     20.58071128	      5.34960979	     -2.27096627	     -0.78723586	      6.74002671	    -13.63022113	     -8.14710823	     41.19762524	     41.19762524	      7.10419667	    -13.75501650	    -19.82997638	    -11.14898598	      6.05613899	      2.41500031	    -12.89085845	    -12.08738551	     -0.35031647	     31.31486322	     45.91014889	      0.00000000	      0.00000000	      9.93136363	    -14.40827810	    -11.92863737	     93.20572818	     47.94432889	      0.00000000	      0.00000000
     40.26885714	     -6.10397760	     -6.56011059	     -2.04737517	      1.06557766	      0.92061021	      0.47021304	     22.11442657	      3.27279471	    -14.00684730	     20.29630384	     20.29630384	      5.83702819	     -2.00318708	     -0.88295901	      8.56412925	    -14.36740926	     -7.16050210	     45.10159758	     45.10159758	      4.47377974	    -14.82891491	    -19.63877769	    -11.14036391	      6.06490523	      2.45430231	    -11.62849159	    -12.01526659	     -0.30817619	     31.97639396	     45.89009483	      0.00000000	      0.00000000	      8.65345107	    -14.10554943	    -11.58460925	     92.04880340	     47.89982923	      0.00000000	      0.00000000
     40.28021429	     -6.05737727	     -6.58538822	     -1.99080609	      1.06632092	      0.92147167	      0.47290136	     21.32964368	      3.46710199	    -14.18873218	     20.08947601	     20.08947601	      6.32074994	     -1.66314393	     -0.99101662	     10.49864242	    -14.78278437	     -5.99983598	     48.89100436	     48.89100436	      1.63623052	    -16.19571764	    -18.84815134	    -11.04003605	      5.91421834	      2.31966818	    -10.26688445	    -11.96652578	     -0.27121442	     32.94759879	     45.85805289	      0.00000000	      0.00000000	      7.42487319	    -13.83074601	    -11.47289324	     90.09121220	     47.85782677	      0.00000000	      0.00000000
     40.29157143	     -5.99309991	     -6.64099198	     -1.91252423	      1.06681661	      0.92215299	      0.47539277	     20.61788630	      3.63672230	    -14.42110661	     20.04867561	     20.04867561	      6.92992016	     -1.13337706	     -1.09856382	     12.56915876	    -15.07580525	     -4.60957426	     52.72690522	     52.72690522	     -0.54211861	    -16.93799234	    -16.20035197	    -11.01015972	      5.87746388	      2.39333019	     -9.14425046	    -12.07582134	     -0.12172574	     34.56496580	     45.79027394	      0.00000000	      0.00000000	      6.75594104	    -13.19325761	    -11.54758991	     87.07668208	     47.82383934	      0.00000000	      0.00000000
     40.30292857	     -5.94699799	     -6.74601316	     -1.82387806	      1.06707552	      0.92261032	      0.47775230	     19.93590969	      3.87248117	    -14.59393840	     19.98418290	     19.98418290	      7.50525657	     -0.79043887	     -1.06736219	     14.80344609	    -15.33802724	     -3.20950214	     56.56733724	     56.56733724	     -1.80847810	    -17.02932175	    -11.64062325	    -10.97036419	      5.85413331	      2.65536585	     -8.18222099	    -12.23667654	     -0.09423738	     36.48406901	     45.71840196	      0.00000000	      0.00000000	      6.17610550	    -12.63803836	    -11.10105789	     84.16345629	     47.76882893	      0.00000000	      0.00000000
     40.31428571	     -5.91911920	     -6.84920249	     -1.71150441	      1.06712906	      0.92292147	      0.47994991	     19.30864362	      4.09453291	    -14.75536533	     19.95846920	     19.95846920	      8.06834207	     -0.52571412	     -1.07614959	     17.06128937	    -15.49651866	     -1.81932987	     60.07478474	     60.07478474	     -2.85426332	    -17.14965272	     -7.09958113	    -10.90485719	      5.82920981	      2.76692461	     -6.94006358	    -12.33163732	     -0.27118039	     38.14120417	     45.67254621	      0.00000000	      0.00000000	      5.60055401	    -12.10567702	    -10.78286876	     80.92610362	     47.71102343	      0.00000000	      0.00000000
     40.32564286	     -5.87474589	     -6.98047692	     -1.57366535	      1.06693425	      0.92311050	      0.48201413	     18.70525218	      4.34218057	    -14.87486581	     19.97341285	     19.97341285	      8.62953625	     -0.40079699	     -0.99323516	     19.30228915	    -15.61051016	     -0.47352559	     63.24703566	     63.24703566	     -3.30174440	    -17.12652403	     -2.21790775	    -10.91389380	      5.83773042	      2.88429167	     -5.64672885	    -12.43197273	     -0.70060812	     40.09522559	     45.63072293	      0.00000000	      0.00000000	      5.06171954	    -11.79501354	    -10.14010905	     77.58148707	     47.63870329	      0.00000000	      0.00000000
     40.33700000	     -5.85622892	     -7.19863974	     -1.36258994	      1.06658125	      0.92317642	      0.48396216	     18.08995828	      4.69352932	    -14.99772266	     19.87482201	     19.87482201	      9.09250902	     -0.43025597	     -1.07925342	     21.41757735	    -15.81712872	      0.75882256	     65.73751625	     65.73751625	     -4.67166197	    -17.73624462	     -1.01299893	    -10.89399859	      5.92014511	      2.51012269	     -3.74190867	    -12.44016528	     -0.87237296	     41.23078863	     45.60872732	      0.00000000	      0.00000000	      3.94636752	    -11.57681754	     -9.91501355	     75.15173406	     47.57483232	      0.00000000	      0.00000000
     40.34835714	     -5.75458366	     -7.27453992	     -1.21665984	      1.06606367	      0.92342598	      0.48568104	     17.46669001	      4.88152910	    -14.99615667	     19.91516794	     19.91516794	      9.61950943	     -0.47138908	     -0.99828410	     23.47098235	    -15.79110087	      1.78741482	     68.03084310	     68.03084310	     -4.13714047	    -17.78028094	      3.73393900	    -10.94030049	      5.88450508	      2.89583301	     -2.33768601	    -12.66343973	     -0.82388517	     43.10784064	     45.54484757	      0.00000000	      0.00000000	      4.55689914	    -10.62222875	    -10.01188854	     69.20290333	     47.49596885	      0.00000000	      0.00000000
     40.35971429	     -5.72002125	     -7.55121428	     -0.94383227	      1.06537082	      0.92345157	      0.48734103	     16.82300044	      5.29376761	    -15.12909028	     19.73454579	     19.73454579	     10.03287043	     -0.56761577	     -1.01043148	     25.52764238	    -16.04124195	      2.76922185	     69.70634898	     69.70634898	     -4.48676415	    -18.25414685	      4.54985657	    -10.97928565	      6.02937819	      2.43973621	     -0.27512060	    -12.64845046	     -1.04759637	     44.49734385	     45.51659217	      0.00000000	      0.00000000	      3.37692721	    -10.48534268	     -9.62120695	     66.92328581	     47.42414269	      0.00000000	      0.00000000
     40.37107143	     -5.62973308	     -7.59865829	     -0.73670669	      1.06458548	      0.92376671	      0.48871402	     16.14983677	      5.46341419	    -15.11210299	     19.60832046	     19.60832046	     10.56665878	     -0.64220662	     -0.68225098	     27.51308103	    -15.97313259	      3.46922283	     71.10152474	     71.10152474	     -2.92701446	    -18.35782855	      9.41149341	    -11.06945467	      5.99541879	      3.12731502	      0.67116274	    -13.01647635	     -1.31452821	     47.63761232	     45.42585472	      0.00000000	      0.00000000	      4.40524227	     -9.73711684	     -8.89972219	     60.34048582	     47.29058626	      0.00000000	      0.00000000
     40.38242857	     -5.51924085	     -7.73369029	     -0.47375250	      1.06373931	      0.92406088	      0.49002907	     15.41413127	      5.75989248	    -15.02991599	     19.37257437	     19.37257437	     10.94354386	     -0.97808719	     -0.59715213	     29.33570350	    -16.09019066	      3.97930435	     71.84461742	     71.84461742	     -2.06866638	    -18.74121959	     11.12221124	    -11.18885061	      6.01265473	      3.02313484	      2.72335742	    -13.11125525	     -1.25163396	     49.16265112	     45.38389862	      0.00000000	      0.00000000	      4.39283027	     -9.30279113	     -8.71675749	     55.49825105	     47.21397920	      0.00000000	      0.00000000
     40.39378571	     -5.47047609	     -7.84626284	     -0.19937079	      1.06277789	      0.92433283	      0.49111827	     14.68778470	      6.01489333	    -15.06247182	     19.00734099	     19.00734099	     11.27907084	     -1.10791017	     -0.50808829	     31.19267430	    -16.18531946	      4.31849947	     72.16588362	     72.16588362	     -0.67048250	    -18.98033891	     13.44521359	    -11.25184011	      6.02284811	      3.07267155	      4.53396771	    -13.34093312	     -1.18621426	     51.22180715	     45.32381600	      0.00000000	      0.00000000	      4.53496944	     -8.77385380	     -8.54313603	     50.54911469	     47.14018678	      0.00000000	      0.00000000
     40.40514286	     -5.39854744	     -7.91590784	      0.09278467	      1.06176319	      0.92467968	      0.49203766	     13.91281075	      6.22902464	    -15.06759251	     18.58431766	     18.58431766	     11.57996306	     -1.25186937	     -0.43908530	     32.91574912	    -16.23854868	      4.47545738	     71.98159817	     71.98159817	      0.87545433	    -19.16138160	     15.58366989	    -11.36587290	      5.99200872	      3.08128476	      6.40488438	    -13.55519307	     -1.16025127	     53.39713803	     45.26526797	      0.00000000	      0.00000000	      4.61888893	     -8.31814186	     -8.37549500	     45.77900988	     47.06987830	      0.00000000	      0.00000000
